<svg width="43" height="38" viewBox="0 0 43 38" fill="none" xmlns="http://www.w3.org/2000/svg">
<g clip-path="url(#clip0_472_13940)">
<path d="M23.5567 -0.000411987L13.1166 37.9982H13.0356L2.60362 37.9996C0.888061 38.0009 -0.357974 36.3811 0.0929893 34.7374L4.41608 19.0014L9.11407 1.9026C9.42241 0.77985 10.4502 -0.000411987 11.6233 -0.000411987H23.5567Z" fill="#55AEFF"/>
<path d="M14.5931 32.331L13.0356 37.9982L2.60362 37.9996C0.888061 38.0009 -0.357974 36.3811 0.0929893 34.7374L4.41608 19.0014C11.3856 19.0522 16.4318 25.6435 14.5931 32.331Z" fill="#6F69F7"/>
<path d="M25.5986 -0.000335693H40.3976C41.8347 -0.000335693 42.9992 1.15612 42.9992 2.58226V17.2728C33.3891 17.2728 25.5986 9.53944 25.5986 -0.000335693Z" fill="#FF395A"/>
<path d="M26.9493 27.1625C30.7932 27.1625 33.9094 24.0692 33.9094 20.2535C33.9094 16.4377 30.7932 13.3444 26.9493 13.3444C23.1054 13.3444 19.9893 16.4377 19.9893 20.2535C19.9893 24.0692 23.1054 27.1625 26.9493 27.1625Z" fill="#FFC25F"/>
</g>
<defs>
<clipPath id="clip0_472_13940">
<rect width="43" height="38" fill="white"/>
</clipPath>
</defs>
</svg>
