<svg width="44" height="44" viewBox="0 0 44 44" fill="none" xmlns="http://www.w3.org/2000/svg">
<rect x="0.5" y="0.5" width="43" height="43" rx="21.5" fill="white"/>
<rect x="0.5" y="0.5" width="43" height="43" rx="21.5" stroke="#E9EAF0"/>
<rect x="0.5" y="0.5" width="43" height="43" rx="21.5" fill="white"/>
<rect x="0.5" y="0.5" width="43" height="43" rx="21.5" stroke="#E9EAF0"/>
<g clip-path="url(#clip0_233_8623)">
<path d="M16.4324 24.0846L15.7362 26.6835L13.1918 26.7374C12.4313 25.3269 12 23.7132 12 21.9984C12 20.3401 12.4033 18.7764 13.1181 17.3995H13.1187L15.384 17.8148L16.3763 20.0665C16.1686 20.672 16.0554 21.322 16.0554 21.9984C16.0555 22.7324 16.1885 23.4358 16.4324 24.0846Z" fill="#FBBB00"/>
<path d="M31.8254 20.1317C31.9402 20.7366 32.0001 21.3614 32.0001 21.9998C32.0001 22.7158 31.9249 23.4141 31.7815 24.0878C31.2947 26.3801 30.0227 28.3817 28.2606 29.7982L28.26 29.7977L25.4068 29.6521L25.0029 27.1312C26.1722 26.4455 27.0859 25.3724 27.5672 24.0878H22.22V20.1317H27.6452H31.8254Z" fill="#518EF8"/>
<path d="M28.26 29.7964L28.2606 29.797C26.5469 31.1744 24.3699 31.9986 22.0001 31.9986C18.1919 31.9986 14.8809 29.8701 13.1919 26.7376L16.4326 24.0849C17.2771 26.3387 19.4512 27.9431 22.0001 27.9431C23.0957 27.9431 24.1221 27.647 25.0029 27.1299L28.26 29.7964Z" fill="#28B446"/>
<path d="M28.383 14.3022L25.1434 16.9544C24.2319 16.3846 23.1544 16.0555 22 16.0555C19.3934 16.0555 17.1786 17.7335 16.3764 20.0681L13.1187 17.4011H13.1182C14.7825 14.1923 18.1352 12 22 12C24.4264 12 26.6511 12.8643 28.383 14.3022Z" fill="#F14336"/>
</g>
<defs>
<clipPath id="clip0_233_8623">
<rect width="20" height="20" fill="white" transform="translate(12 12)"/>
</clipPath>
</defs>
</svg>
