<svg width="22" height="18" viewBox="0 0 22 18" fill="none" xmlns="http://www.w3.org/2000/svg">
<path d="M11 17.25C11 17.25 1.625 12 1.625 5.625C1.62519 4.49825 2.01561 3.40634 2.72989 2.53492C3.44416 1.6635 4.4382 1.06635 5.54299 0.845003C6.64778 0.623658 7.79514 0.791777 8.78999 1.32078C9.78484 1.84978 10.5658 2.707 11 3.74671L11 3.74672C11.4342 2.70701 12.2152 1.84978 13.21 1.32078C14.2049 0.791779 15.3522 0.623659 16.457 0.845003C17.5618 1.06635 18.5558 1.66349 19.2701 2.53492C19.9844 3.40634 20.3748 4.49825 20.375 5.625C20.375 12 11 17.25 11 17.25Z" stroke="#1D2026" stroke-width="1.5" stroke-linecap="round" stroke-linejoin="round"/>
</svg>
