<svg width="64" height="64" viewBox="0 0 64 64" fill="none" xmlns="http://www.w3.org/2000/svg">
<rect width="64" height="64" fill="white"/>
<path opacity="0.2" d="M21.2794 21.3733C21.1304 21.3298 20.9732 21.3217 20.8205 21.3494C20.6678 21.3772 20.5236 21.4402 20.3994 21.5333C20.2752 21.6265 20.1744 21.7472 20.105 21.8861C20.0355 22.025 19.9994 22.1781 19.9994 22.3333V39.6666C19.9994 39.8219 20.0355 39.975 20.105 40.1139C20.1744 40.2527 20.2752 40.3735 20.3994 40.4666C20.5236 40.5598 20.6678 40.6227 20.8205 40.6505C20.9732 40.6783 21.1304 40.6701 21.2794 40.6266L33.0001 37.2081V24.7919L21.2794 21.3733Z" fill="#564FFD"/>
<path d="M19.9994 22.3333V39.6666C19.9994 39.8219 20.0355 39.975 20.105 40.1139C20.1744 40.2527 20.2752 40.3735 20.3994 40.4666C20.5236 40.5598 20.6678 40.6227 20.8205 40.6505C20.9732 40.6783 21.1304 40.6701 21.2794 40.6266L43.2794 34.21C43.4871 34.1494 43.6696 34.0231 43.7994 33.85C43.9292 33.6769 43.9994 33.4663 43.9994 33.25V28.75C43.9994 28.5336 43.9292 28.3231 43.7994 28.15C43.6696 27.9769 43.4871 27.8506 43.2794 27.79L21.2794 21.3733C21.1304 21.3298 20.9732 21.3217 20.8205 21.3494C20.6678 21.3772 20.5236 21.4402 20.3994 21.5333C20.2752 21.6265 20.1744 21.7472 20.105 21.8861C20.0355 22.025 19.9994 22.1781 19.9994 22.3333V22.3333Z" stroke="#564FFD" stroke-width="2" stroke-linecap="round" stroke-linejoin="round"/>
<path d="M39 35.4581V40C39 40.2652 38.8946 40.5196 38.7071 40.7071C38.5196 40.8946 38.2652 41 38 41H34C33.7348 41 33.4804 40.8946 33.2929 40.7071C33.1054 40.5196 33 40.2652 33 40V24.7919" stroke="#564FFD" stroke-width="2" stroke-linecap="round" stroke-linejoin="round"/>
</svg>
