<svg width="176" height="34" viewBox="0 0 176 34" fill="none" xmlns="http://www.w3.org/2000/svg">
<path d="M20.0162 0.500016L11.1452 33.4988H11.0764L2.21231 33.5C0.754589 33.5012 -0.304172 32.0945 0.0790133 30.6671L3.75236 17.0016L7.74426 2.15263C8.00625 1.17761 8.87958 0.500016 9.8764 0.500016H20.0162Z" fill="#55AEFF"/>
<path d="M12.3998 28.5772L11.0764 33.4988L2.21231 33.5C0.754589 33.5012 -0.304172 32.0945 0.0790133 30.6671L3.75236 17.0016C9.67442 17.0457 13.9622 22.7696 12.3998 28.5772Z" fill="#6F69F7"/>
<path d="M21.7513 0.5H34.326C35.5471 0.5 36.5366 1.50429 36.5366 2.74278V15.5004C28.3709 15.5004 21.7513 8.78454 21.7513 0.5Z" fill="#FF395A"/>
<path d="M22.8989 24.0889C26.1651 24.0889 28.8129 21.4026 28.8129 18.0889C28.8129 14.7752 26.1651 12.0889 22.8989 12.0889C19.6327 12.0889 16.985 14.7752 16.985 18.0889C16.985 21.4026 19.6327 24.0889 22.8989 24.0889Z" fill="#FFC25F"/>
<path d="M52.7407 22.5679H49.4273V7.55708H52.7407V22.5679ZM60.2071 17.0117H50.355V14.0095H60.2071V17.0117ZM60.5384 10.5817H50.355V7.55708H60.5384V10.5817Z" fill="#18182E"/>
<path d="M67.2832 22.792C66.0904 22.792 65.0669 22.553 64.2128 22.075C63.3586 21.5971 62.7033 20.9175 62.2468 20.0363C61.805 19.155 61.5841 18.1244 61.5841 16.9445C61.5841 15.7496 61.805 14.7115 62.2468 13.8303C62.7033 12.949 63.3586 12.2694 64.2128 11.7915C65.0669 11.3135 66.0904 11.0746 67.2832 11.0746C68.4761 11.0746 69.4849 11.3135 70.3096 11.7915C71.149 12.2694 71.7896 12.949 72.2314 13.8303C72.6879 14.7115 72.9161 15.7496 72.9161 16.9445C72.9161 18.1244 72.6879 19.155 72.2314 20.0363C71.7896 20.9175 71.149 21.5971 70.3096 22.075C69.4849 22.553 68.4761 22.792 67.2832 22.792ZM67.2832 19.8346C68.1816 19.8346 68.8074 19.6255 69.1609 19.2073C69.5143 18.7891 69.691 18.0348 69.691 16.9445C69.691 15.8392 69.5143 15.0774 69.1609 14.6592C68.8074 14.241 68.1816 14.0319 67.2832 14.0319C66.3849 14.0319 65.7517 14.241 65.3835 14.6592C65.0301 15.0774 64.8534 15.8392 64.8534 16.9445C64.8534 18.0348 65.0301 18.7891 65.3835 19.2073C65.7517 19.6255 66.3849 19.8346 67.2832 19.8346Z" fill="#18182E"/>
<path d="M78.4933 22.792C77.5361 22.792 76.7482 22.5978 76.1297 22.2095C75.5112 21.8211 75.062 21.2984 74.7822 20.6412C74.5024 19.984 74.3625 19.2521 74.3625 18.4456V11.2986H77.6539V17.7734C77.6539 18.565 77.8085 19.1177 78.1178 19.4313C78.4418 19.745 79.0161 19.9018 79.8408 19.9018C80.3709 19.9018 80.8054 19.8346 81.1441 19.7002C81.4828 19.5658 81.7258 19.3417 81.873 19.0281C82.035 18.6995 82.116 18.2514 82.116 17.6838H82.845V20.5964H82.2265C82.0203 21.0295 81.7479 21.4104 81.4092 21.739C81.0705 22.0676 80.6581 22.329 80.1721 22.5231C79.7009 22.7024 79.1413 22.792 78.4933 22.792ZM85.4074 22.5679H82.3369V19.3865L82.116 19.2745V11.2986H85.4074V22.5679Z" fill="#18182E"/>
<path d="M98.5037 22.5679H95.1903V16.0931C95.1903 15.3164 95.0356 14.7713 94.7264 14.4576C94.4171 14.129 93.8428 13.9647 93.0034 13.9647C92.4732 13.9647 92.0388 14.0319 91.7001 14.1663C91.3761 14.3008 91.1331 14.5323 90.9711 14.8609C90.8091 15.1745 90.7281 15.6151 90.7281 16.1827H90.2642L89.9992 13.2702H90.6398C90.8459 12.837 91.111 12.4561 91.435 12.1276C91.7737 11.799 92.1861 11.545 92.672 11.3658C93.158 11.1716 93.725 11.0746 94.3729 11.0746C95.3449 11.0746 96.1328 11.2687 96.7366 11.6571C97.3403 12.0454 97.7821 12.5756 98.0619 13.2478C98.3565 13.905 98.5037 14.6294 98.5037 15.421V22.5679ZM90.7281 22.5679H87.4367V11.2986H90.5072V14.48L90.7281 14.592V22.5679Z" fill="#18182E"/>
<path d="M104.798 22.792C103.237 22.792 102.044 22.2617 101.219 21.2013C100.395 20.1259 99.9824 18.7069 99.9824 16.9445C99.9824 15.1521 100.402 13.7257 101.242 12.6653C102.096 11.6048 103.281 11.0746 104.798 11.0746C105.667 11.0746 106.359 11.2389 106.874 11.5674C107.39 11.896 107.773 12.2993 108.023 12.7773H108.752L108.575 16.0259H108.156C108.156 15.5181 108.06 15.1148 107.868 14.8161C107.692 14.5173 107.419 14.3008 107.051 14.1663C106.683 14.017 106.241 13.9423 105.726 13.9423C105.24 13.9423 104.835 14.002 104.511 14.1215C104.202 14.241 103.951 14.4277 103.76 14.6816C103.583 14.9206 103.458 15.2343 103.384 15.6226C103.311 15.996 103.274 16.4366 103.274 16.9445C103.274 17.4523 103.311 17.9004 103.384 18.2887C103.458 18.6621 103.59 18.9683 103.782 19.2073C103.973 19.4463 104.224 19.6255 104.533 19.745C104.857 19.8645 105.254 19.9242 105.726 19.9242C106.241 19.9242 106.683 19.857 107.051 19.7226C107.419 19.5732 107.692 19.3492 107.868 19.0505C108.06 18.7368 108.156 18.3335 108.156 17.8406H108.575L108.752 20.91H108.266C107.986 21.5075 107.544 21.9705 106.941 22.2991C106.337 22.6277 105.623 22.792 104.798 22.792ZM111.447 22.5679H108.377V20.1931L108.156 19.9018V7.55708H111.447V22.5679Z" fill="#18182E"/>
<path d="M118.535 22.792C117.269 22.792 116.223 22.553 115.399 22.075C114.574 21.5971 113.963 20.925 113.565 20.0587C113.168 19.1774 112.969 18.1468 112.969 16.9669C112.969 15.757 113.19 14.7115 113.631 13.8303C114.088 12.949 114.736 12.2694 115.575 11.7915C116.415 11.3135 117.409 11.0746 118.557 11.0746C119.677 11.0746 120.627 11.2837 121.407 11.7019C122.202 12.1201 122.806 12.7026 123.218 13.4494C123.646 14.1813 123.859 15.0401 123.859 16.0259C123.859 16.3396 123.837 16.6457 123.793 16.9445C123.763 17.2432 123.734 17.4896 123.704 17.6838H114.427V15.645H120.877L120.656 15.8243C120.715 15.3911 120.663 15.0326 120.501 14.7489C120.354 14.4501 120.104 14.2261 119.75 14.0767C119.412 13.9124 118.977 13.8303 118.447 13.8303C117.534 13.8303 116.908 14.0394 116.569 14.4576C116.231 14.8758 116.061 15.4733 116.061 16.2499V17.2357C116.061 17.863 116.128 18.3709 116.26 18.7592C116.407 19.1476 116.665 19.4313 117.033 19.6106C117.401 19.7898 117.917 19.8794 118.58 19.8794C119.242 19.8794 119.721 19.8047 120.015 19.6554C120.325 19.4911 120.479 19.2372 120.479 18.8936V18.7592H123.749V18.9833C123.749 19.7898 123.535 20.4769 123.108 21.0445C122.681 21.612 122.077 22.0452 121.297 22.3439C120.516 22.6426 119.596 22.792 118.535 22.792Z" fill="#18182E"/>
<path d="M128.738 22.5679H125.447V11.2986H128.517V14.5024L128.738 14.6144V22.5679ZM128.738 15.5106H128.12V13.1133H128.65C128.93 12.5458 129.32 12.0678 129.821 11.6795C130.336 11.2762 130.984 11.0746 131.764 11.0746C132.545 11.0746 133.163 11.2538 133.62 11.6123C134.091 11.9558 134.43 12.4337 134.636 13.0461C134.842 13.6436 134.945 14.3232 134.945 15.0849V16.1155H131.654V15.5106C131.654 14.8982 131.551 14.48 131.345 14.256C131.139 14.0319 130.77 13.9199 130.24 13.9199C129.74 13.9199 129.364 14.0319 129.114 14.256C128.863 14.48 128.738 14.8982 128.738 15.5106Z" fill="#18182E"/>
<path d="M149.44 22.5679H146.126V7.55708H149.44V22.5679ZM139.676 22.5679H136.363V7.55708H139.676V22.5679ZM147.805 16.5188H137.291V13.5166H147.805V16.5188Z" fill="#18182E"/>
<path d="M155.592 22.792C154.635 22.792 153.847 22.5978 153.228 22.2095C152.61 21.8211 152.161 21.2984 151.881 20.6412C151.601 19.984 151.461 19.2521 151.461 18.4456V11.2986H154.753V17.7734C154.753 18.565 154.907 19.1177 155.216 19.4313C155.54 19.745 156.115 19.9018 156.939 19.9018C157.47 19.9018 157.904 19.8346 158.243 19.7002C158.581 19.5658 158.824 19.3417 158.972 19.0281C159.134 18.6995 159.215 18.2514 159.215 17.6838H159.944V20.5964H159.325C159.119 21.0295 158.846 21.4104 158.508 21.739C158.169 22.0676 157.757 22.329 157.271 22.5231C156.8 22.7024 156.24 22.792 155.592 22.792ZM162.506 22.5679H159.436V19.3865L159.215 19.2745V11.2986H162.506V22.5679Z" fill="#18182E"/>
<path d="M171.361 22.792C170.492 22.792 169.741 22.6352 169.108 22.3215C168.475 21.9929 168.011 21.5224 167.716 20.91H167.252L167.407 17.8406H167.827C167.827 18.3335 167.922 18.7368 168.114 19.0505C168.305 19.3492 168.578 19.5732 168.931 19.7226C169.299 19.857 169.749 19.9242 170.279 19.9242C170.75 19.9242 171.14 19.8645 171.449 19.745C171.773 19.6255 172.024 19.4463 172.201 19.2073C172.392 18.9683 172.525 18.6621 172.598 18.2887C172.672 17.9004 172.709 17.4523 172.709 16.9445C172.709 16.4366 172.672 15.996 172.598 15.6226C172.525 15.2343 172.392 14.9206 172.201 14.6816C172.024 14.4277 171.773 14.241 171.449 14.1215C171.14 14.002 170.75 13.9423 170.279 13.9423C169.749 13.9423 169.299 14.017 168.931 14.1663C168.578 14.3008 168.305 14.5173 168.114 14.8161C167.922 15.1148 167.827 15.5181 167.827 16.0259H167.407L167.252 12.8669H167.959C168.21 12.3889 168.622 11.9707 169.196 11.6123C169.785 11.2538 170.5 11.0746 171.339 11.0746C172.871 11.0746 174.027 11.6048 174.807 12.6653C175.602 13.7257 176 15.1521 176 16.9445C176 18.7069 175.602 20.1259 174.807 21.2013C174.027 22.2617 172.878 22.792 171.361 22.792ZM167.606 22.5679H164.535V7.55708H167.827V19.9018L167.606 20.1931V22.5679Z" fill="#18182E"/>
</svg>
