<svg width="245" height="46" viewBox="0 0 245 46" fill="none" xmlns="http://www.w3.org/2000/svg">
<path d="M27.8634 2.2064e-05L15.5146 45.9984H15.4188L3.07963 46C1.05042 46.0016 -0.423421 44.0408 0.10999 42.0511L5.22345 23.0022L10.7804 2.30367C11.1451 0.944549 12.3608 2.2064e-05 13.7484 2.2064e-05H27.8634Z" fill="#55AEFF"/>
<path d="M17.2611 39.1379L15.4188 45.9984L3.07963 46C1.05042 46.0016 -0.423421 44.0408 0.10999 42.0511L5.22345 23.0022C13.4672 23.0637 19.436 31.0425 17.2611 39.1379Z" fill="#6F69F7"/>
<path d="M30.2788 0H47.7834C49.4832 0 50.8606 1.39992 50.8606 3.1263V20.9096C39.4935 20.9096 30.2788 11.5481 30.2788 0Z" fill="#FF395A"/>
<path d="M31.8764 32.8815C36.4231 32.8815 40.1089 29.1369 40.1089 24.5178C40.1089 19.8987 36.4231 16.1542 31.8764 16.1542C27.3297 16.1542 23.6438 19.8987 23.6438 24.5178C23.6438 29.1369 27.3297 32.8815 31.8764 32.8815Z" fill="#FFC25F"/>
<path d="M73.4175 30.7614H68.805V9.83715H73.4175V30.7614ZM83.811 23.0163H70.0965V18.8314H83.811V23.0163ZM84.2722 14.0532H70.0965V9.83715H84.2722V14.0532Z" fill="#F9F9F9"/>
<path d="M93.6613 31.0737C92.0008 31.0737 90.5761 30.7406 89.3871 30.0743C88.1981 29.4081 87.2858 28.4607 86.6503 27.2324C86.0353 26.004 85.7278 24.5674 85.7278 22.9226C85.7278 21.257 86.0353 19.81 86.6503 18.5816C87.2858 17.3532 88.1981 16.4059 89.3871 15.7397C90.5761 15.0734 92.0008 14.7403 93.6613 14.7403C95.3218 14.7403 96.7261 15.0734 97.8741 15.7397C99.0426 16.4059 99.9343 17.3532 100.549 18.5816C101.185 19.81 101.503 21.257 101.503 22.9226C101.503 24.5674 101.185 26.004 100.549 27.2324C99.9343 28.4607 99.0426 29.4081 97.8741 30.0743C96.7261 30.7406 95.3218 31.0737 93.6613 31.0737ZM93.6613 26.9513C94.9118 26.9513 95.7831 26.6598 96.2751 26.0768C96.7671 25.4939 97.0131 24.4425 97.0131 22.9226C97.0131 21.3819 96.7671 20.3201 96.2751 19.7371C95.7831 19.1542 94.9118 18.8627 93.6613 18.8627C92.4108 18.8627 91.5293 19.1542 91.0168 19.7371C90.5248 20.3201 90.2788 21.3819 90.2788 22.9226C90.2788 24.4425 90.5248 25.4939 91.0168 26.0768C91.5293 26.6598 92.4108 26.9513 93.6613 26.9513Z" fill="#F9F9F9"/>
<path d="M109.266 31.0737C107.934 31.0737 106.837 30.803 105.976 30.2617C105.115 29.7204 104.49 28.9917 104.1 28.0756C103.711 27.1595 103.516 26.1393 103.516 25.015V15.0526H108.098V24.0781C108.098 25.1816 108.313 25.9519 108.744 26.3891C109.195 26.8264 109.994 27.045 111.142 27.045C111.88 27.045 112.485 26.9513 112.956 26.7639C113.428 26.5765 113.766 26.2642 113.971 25.827C114.197 25.369 114.309 24.7444 114.309 23.9532H115.324V28.0131H114.463C114.176 28.6169 113.797 29.1478 113.325 29.6059C112.854 30.0639 112.28 30.4283 111.603 30.6989C110.947 30.9488 110.168 31.0737 109.266 31.0737ZM118.891 30.7614H114.617V26.3267L114.309 26.1705V15.0526H118.891V30.7614Z" fill="#F9F9F9"/>
<path d="M137.122 30.7614H132.509V21.7358C132.509 20.6532 132.294 19.8933 131.863 19.456C131.433 18.998 130.633 18.769 129.465 18.769C128.727 18.769 128.122 18.8627 127.651 19.0501C127.2 19.2374 126.861 19.5601 126.636 20.0182C126.41 20.4554 126.298 21.0696 126.298 21.8608H125.652L125.283 17.8008H126.175C126.462 17.1971 126.831 16.6661 127.282 16.2081C127.753 15.7501 128.327 15.3961 129.004 15.1463C129.68 14.8756 130.469 14.7403 131.371 14.7403C132.724 14.7403 133.821 15.0109 134.662 15.5523C135.502 16.0936 136.117 16.8327 136.507 17.7696C136.917 18.6857 137.122 19.6955 137.122 20.7989V30.7614ZM126.298 30.7614H121.716V15.0526H125.99V19.4873L126.298 19.6434V30.7614Z" fill="#F9F9F9"/>
<path d="M145.884 31.0737C143.711 31.0737 142.05 30.3346 140.902 28.8563C139.754 27.3573 139.18 25.3794 139.18 22.9226C139.18 20.4242 139.764 18.4359 140.933 16.9576C142.122 15.4794 143.772 14.7403 145.884 14.7403C147.093 14.7403 148.057 14.9693 148.774 15.4273C149.492 15.8854 150.025 16.4475 150.373 17.1138H151.388L151.142 21.6422H150.558C150.558 20.9343 150.424 20.3721 150.158 19.9557C149.912 19.5393 149.533 19.2374 149.02 19.0501C148.508 18.8418 147.893 18.7377 147.175 18.7377C146.499 18.7377 145.935 18.821 145.484 18.9876C145.053 19.1542 144.705 19.4144 144.438 19.7683C144.192 20.1015 144.018 20.5387 143.916 21.08C143.813 21.6005 143.762 22.2147 143.762 22.9226C143.762 23.6305 143.813 24.2551 143.916 24.7964C144.018 25.3169 144.203 25.7437 144.469 26.0768C144.736 26.41 145.084 26.6598 145.515 26.8264C145.966 26.9929 146.519 27.0762 147.175 27.0762C147.893 27.0762 148.508 26.9825 149.02 26.7951C149.533 26.5869 149.912 26.2746 150.158 25.8582C150.424 25.421 150.558 24.8589 150.558 24.1718H151.142L151.388 28.4503H150.711C150.322 29.2831 149.707 29.9286 148.866 30.3866C148.026 30.8447 147.032 31.0737 145.884 31.0737ZM155.139 30.7614H150.865V27.451L150.558 27.045V9.83715H155.139V30.7614Z" fill="#F9F9F9"/>
<path d="M165.007 31.0737C163.244 31.0737 161.788 30.7406 160.64 30.0743C159.492 29.4081 158.641 28.4712 158.088 27.2636C157.534 26.0352 157.258 24.5986 157.258 22.9538C157.258 21.2674 157.565 19.81 158.18 18.5816C158.816 17.3532 159.718 16.4059 160.886 15.7397C162.055 15.0734 163.438 14.7403 165.037 14.7403C166.595 14.7403 167.918 15.0318 169.004 15.6147C170.111 16.1977 170.952 17.0097 171.526 18.0507C172.12 19.0709 172.417 20.268 172.417 21.6422C172.417 22.0794 172.387 22.5062 172.325 22.9226C172.284 23.339 172.243 23.6825 172.202 23.9532H159.287V21.1112H168.266L167.959 21.3611C168.041 20.7573 167.969 20.2576 167.743 19.862C167.538 19.4456 167.19 19.1333 166.698 18.9251C166.226 18.6961 165.622 18.5816 164.884 18.5816C163.613 18.5816 162.741 18.8731 162.27 19.456C161.798 20.039 161.563 20.8718 161.563 21.9545V23.3286C161.563 24.203 161.655 24.9109 161.839 25.4522C162.044 25.9936 162.403 26.3891 162.916 26.639C163.428 26.8888 164.146 27.0137 165.068 27.0137C165.991 27.0137 166.657 26.9096 167.067 26.7014C167.497 26.4724 167.713 26.1185 167.713 25.6396V25.4522H172.264V25.7645C172.264 26.8888 171.966 27.8466 171.372 28.6377C170.777 29.4289 169.937 30.0327 168.85 30.4491C167.764 30.8655 166.483 31.0737 165.007 31.0737Z" fill="#F9F9F9"/>
<path d="M179.209 30.7614H174.628V15.0526H178.902V19.5185L179.209 19.6747V30.7614ZM179.209 20.9239H178.348V17.5822H179.086C179.476 16.7911 180.019 16.1248 180.716 15.5835C181.434 15.0214 182.336 14.7403 183.422 14.7403C184.509 14.7403 185.37 14.9901 186.005 15.4898C186.661 15.9687 187.133 16.6349 187.42 17.4885C187.707 18.3213 187.85 19.2687 187.85 20.3305V21.7671H183.268V20.9239C183.268 20.0702 183.125 19.4873 182.838 19.175C182.551 18.8627 182.038 18.7065 181.3 18.7065C180.603 18.7065 180.081 18.8627 179.732 19.175C179.384 19.4873 179.209 20.0702 179.209 20.9239Z" fill="#F9F9F9"/>
<path d="M208.027 30.7614H203.415V9.83715H208.027V30.7614ZM194.436 30.7614H189.823V9.83715H194.436V30.7614ZM205.752 22.3292H191.115V18.1444H205.752V22.3292Z" fill="#F9F9F9"/>
<path d="M216.591 31.0737C215.259 31.0737 214.162 30.803 213.301 30.2617C212.44 29.7204 211.815 28.9917 211.425 28.0756C211.036 27.1595 210.841 26.1393 210.841 25.015V15.0526H215.423V24.0781C215.423 25.1816 215.638 25.9519 216.068 26.3891C216.519 26.8264 217.319 27.045 218.467 27.045C219.205 27.045 219.81 26.9513 220.281 26.7639C220.753 26.5765 221.091 26.2642 221.296 25.827C221.521 25.369 221.634 24.7444 221.634 23.9532H222.649V28.0131H221.788C221.501 28.6169 221.122 29.1478 220.65 29.6059C220.179 30.0639 219.605 30.4283 218.928 30.6989C218.272 30.9488 217.493 31.0737 216.591 31.0737ZM226.216 30.7614H221.942V26.3267L221.634 26.1705V15.0526H226.216V30.7614Z" fill="#F9F9F9"/>
<path d="M238.542 31.0737C237.333 31.0737 236.287 30.8551 235.406 30.4178C234.524 29.9598 233.879 29.304 233.469 28.4503H232.823L233.038 24.1718H233.622C233.622 24.8589 233.756 25.421 234.022 25.8582C234.289 26.2746 234.668 26.5869 235.16 26.7951C235.672 26.9825 236.298 27.0762 237.036 27.0762C237.692 27.0762 238.235 26.9929 238.665 26.8264C239.116 26.6598 239.465 26.41 239.711 26.0768C239.977 25.7437 240.162 25.3169 240.264 24.7964C240.367 24.2551 240.418 23.6305 240.418 22.9226C240.418 22.2147 240.367 21.6005 240.264 21.08C240.162 20.5387 239.977 20.1015 239.711 19.7683C239.465 19.4144 239.116 19.1542 238.665 18.9876C238.235 18.821 237.692 18.7377 237.036 18.7377C236.298 18.7377 235.672 18.8418 235.16 19.0501C234.668 19.2374 234.289 19.5393 234.022 19.9557C233.756 20.3721 233.622 20.9343 233.622 21.6422H233.038L232.823 17.2387H233.807C234.155 16.5725 234.729 15.9895 235.529 15.4898C236.349 14.9901 237.343 14.7403 238.512 14.7403C240.644 14.7403 242.253 15.4794 243.339 16.9576C244.446 18.4359 245 20.4242 245 22.9226C245 25.3794 244.446 27.3573 243.339 28.8563C242.253 30.3346 240.654 31.0737 238.542 31.0737ZM233.315 30.7614H229.041V9.83715H233.622V27.045L233.315 27.451V30.7614Z" fill="#F9F9F9"/>
</svg>
