<svg width="18" height="18" viewBox="0 0 18 18" fill="none" xmlns="http://www.w3.org/2000/svg">
<path d="M8.99646 3C9.03249 3 14.6354 3.0015 16.0394 3.38574C16.8101 3.59342 17.4178 4.20087 17.6254 4.97168C18.011 6.38012 17.9965 9.31641 17.9965 9.31641C17.9965 9.33769 17.9946 12.2421 17.6254 13.6455C17.4177 14.4164 16.8105 15.0249 16.0394 15.2324C14.6329 15.6027 9.01314 15.6025 8.99646 15.6025C8.99646 15.6025 3.37676 15.6033 1.95349 15.2178C1.18246 15.0101 0.575212 14.4018 0.367554 13.6309C-0.000926987 12.2453 -0.00352742 9.33576 -0.00354004 9.30176C-0.00354004 9.30176 -0.003096 6.38012 0.367554 4.97168C0.575167 4.20096 1.19756 3.57859 1.95349 3.37109C3.36207 3.00031 8.99646 3 8.99646 3ZM7.20251 12L11.8881 9.30176L7.20251 6.60352V12Z" fill="white"/>
</svg>
